<svg width="96" height="96" viewBox="0 0 96 96" fill="none" xmlns="http://www.w3.org/2000/svg">
<g clip-path="url(#clip0_27_113)">
<path fill-rule="evenodd" clip-rule="evenodd" d="M21.4932 12.6512H74.5166C79.3972 12.6512 83.3541 16.6079 83.3541 21.4885V74.5119C83.3541 79.3925 79.3972 83.3494 74.5166 83.3494H21.4932C16.6125 83.3494 12.656 79.3925 12.656 74.5119V21.4885C12.656 16.6079 16.6125 12.6512 21.4932 12.6512ZM38.2011 33.0874H58.6371C61.4588 33.0874 63.7462 35.3748 63.7462 38.1964V58.6325C63.7462 61.4541 61.4588 63.7415 58.6371 63.7415H38.2011C35.3794 63.7415 33.092 61.4541 33.092 58.6325V38.1964C33.092 35.3748 35.3794 33.0874 38.2011 33.0874Z" fill="#1F65FE"/>
<path fill-rule="evenodd" clip-rule="evenodd" d="M9.33936 21.4884C9.33936 14.7775 14.7796 9.33722 21.4905 9.33722H74.5139C81.2247 9.33722 86.6654 14.7775 86.6654 21.4884V74.5118C86.6654 81.2226 81.2247 86.6633 74.5139 86.6633H21.4905C14.7796 86.6633 9.33936 81.2226 9.33936 74.5118V21.4884ZM21.4905 15.9651C18.4401 15.9651 15.9673 18.438 15.9673 21.4884V74.5118C15.9673 77.5623 18.4401 80.0354 21.4905 80.0354H74.5139C77.5643 80.0354 80.0374 77.5623 80.0374 74.5118V21.4884C80.0374 18.438 77.5643 15.9651 74.5139 15.9651H21.4905ZM29.7754 38.1964C29.7754 33.5445 33.5465 29.7733 38.1984 29.7733H58.6345C63.2863 29.7733 67.0575 33.5445 67.0575 38.1964V58.6324C67.0575 63.2843 63.2863 67.0554 58.6345 67.0554H38.1984C33.5465 67.0554 29.7754 63.2843 29.7754 58.6324V38.1964ZM38.1984 36.4013C37.207 36.4013 36.4033 37.2049 36.4033 38.1964V58.6324C36.4033 59.6239 37.207 60.4275 38.1984 60.4275H58.6345C59.6259 60.4275 60.4295 59.6239 60.4295 58.6324V38.1964C60.4295 37.2049 59.6259 36.4013 58.6345 36.4013H38.1984Z" fill="#1F65FE"/>
<path fill-rule="evenodd" clip-rule="evenodd" d="M61.255 0.500061C63.0853 0.500061 64.569 1.98377 64.569 3.81405V12.6512C64.569 14.4815 63.0853 15.9652 61.255 15.9652C59.4248 15.9652 57.941 14.4815 57.941 12.6512V3.81405C57.941 1.98377 59.4248 0.500061 61.255 0.500061Z" fill="#1F65FE"/>
<path fill-rule="evenodd" clip-rule="evenodd" d="M61.255 80.0353C63.0853 80.0353 64.569 81.5192 64.569 83.3493V92.186C64.569 94.0161 63.0853 95.4999 61.255 95.4999C59.4248 95.4999 57.941 94.0161 57.941 92.186V83.3493C57.941 81.5192 59.4248 80.0353 61.255 80.0353Z" fill="#1F65FE"/>
<path fill-rule="evenodd" clip-rule="evenodd" d="M0.502686 61.256C0.502686 59.4258 1.9864 57.9421 3.81666 57.9421H12.6539C14.4841 57.9421 15.9679 59.4258 15.9679 61.256C15.9679 63.0863 14.4841 64.57 12.6539 64.57H3.81666C1.9864 64.57 0.502686 63.0863 0.502686 61.256Z" fill="#1F65FE"/>
<path fill-rule="evenodd" clip-rule="evenodd" d="M0.502686 34.7444C0.502686 32.9142 1.9864 31.4304 3.81666 31.4304H12.6539C14.4841 31.4304 15.9679 32.9142 15.9679 34.7444C15.9679 36.5746 14.4841 38.0583 12.6539 38.0583H3.81666C1.9864 38.0583 0.502686 36.5746 0.502686 34.7444Z" fill="#1F65FE"/>
<path fill-rule="evenodd" clip-rule="evenodd" d="M80.0327 61.256C80.0327 59.4258 81.5165 57.9421 83.3467 57.9421H92.1834C94.0135 57.9421 95.4973 59.4258 95.4973 61.256C95.4973 63.0863 94.0135 64.57 92.1834 64.57H83.3467C81.5165 64.57 80.0327 63.0863 80.0327 61.256Z" fill="#1F65FE"/>
<path fill-rule="evenodd" clip-rule="evenodd" d="M80.0327 34.7444C80.0327 32.9142 81.5165 31.4304 83.3467 31.4304H92.1834C94.0135 31.4304 95.4973 32.9142 95.4973 34.7444C95.4973 36.5746 94.0135 38.0583 92.1834 38.0583H83.3467C81.5165 38.0583 80.0327 36.5746 80.0327 34.7444Z" fill="#1F65FE"/>
<path fill-rule="evenodd" clip-rule="evenodd" d="M34.745 0.500061C36.5753 0.500061 38.059 1.98377 38.059 3.81405V12.6512C38.059 14.4815 36.5753 15.9652 34.745 15.9652C32.9148 15.9652 31.431 14.4815 31.431 12.6512V3.81405C31.431 1.98377 32.9148 0.500061 34.745 0.500061Z" fill="#1F65FE"/>
<path fill-rule="evenodd" clip-rule="evenodd" d="M34.745 80.0353C36.5753 80.0353 38.059 81.5192 38.059 83.3493V92.186C38.059 94.0161 36.5753 95.4999 34.745 95.4999C32.9148 95.4999 31.431 94.0161 31.431 92.186V83.3493C31.431 81.5192 32.9148 80.0353 34.745 80.0353Z" fill="#1F65FE"/>
</g>
<defs>
<clipPath id="clip0_27_113">
<rect width="95" height="95" fill="white" transform="translate(0.5 0.5)"/>
</clipPath>
</defs>
</svg>
