<svg width="700" height="320" viewBox="0 0 700 320" fill="none" xmlns="http://www.w3.org/2000/svg">
<rect width="700" height="320" rx="20" fill="#1F65FE"/>
<path d="M331.439 192.308V128.878H368.572V140.295H344.087V155.156H368.12V166.392H344.087V192.308H331.439ZM372.646 192.308V145.189H384.843V192.308H372.646ZM371.381 134.043C371.381 130.147 374.543 126.885 378.699 126.885C382.946 126.885 386.018 130.147 386.018 134.043C386.018 138.121 382.946 141.292 378.699 141.292C374.543 141.292 371.381 138.03 371.381 134.043ZM384.829 192.308L402.447 168.748L385.732 145.189H400.279L409.856 160.14L419.794 145.189H434.069L417.355 168.929L434.972 192.308H420.155L409.946 177.266L399.375 192.308H384.829ZM434.987 192.308V145.189H446.822V154.159C448.449 147.363 453.237 143.648 461.368 144.101V155.609H459.652C452.605 155.609 447.184 160.321 447.184 168.204V192.308H434.987Z" fill="#FEFEFE"/>
<path fill-rule="evenodd" clip-rule="evenodd" d="M257.09 129.843H301.682C305.787 129.843 309.115 133.173 309.115 137.281V181.911C309.115 186.019 305.787 189.35 301.682 189.35H257.09C252.985 189.35 249.658 186.019 249.658 181.911V137.281C249.658 133.173 252.985 129.843 257.09 129.843ZM271.141 147.044H288.328C290.701 147.044 292.625 148.969 292.625 151.344V168.545C292.625 170.92 290.701 172.846 288.328 172.846H271.141C268.768 172.846 266.844 170.92 266.844 168.545V151.344C266.844 148.969 268.768 147.044 271.141 147.044Z" fill="#FEFEFE"/>
<path fill-rule="evenodd" clip-rule="evenodd" d="M246.871 137.281C246.871 131.633 251.446 127.054 257.09 127.054H301.682C307.326 127.054 311.902 131.633 311.902 137.281V181.911C311.902 187.56 307.326 192.139 301.682 192.139H257.09C251.446 192.139 246.871 187.56 246.871 181.911V137.281ZM257.09 132.632C254.524 132.632 252.445 134.714 252.445 137.281V181.911C252.445 184.479 254.524 186.56 257.09 186.56H301.682C304.248 186.56 306.328 184.479 306.328 181.911V137.281C306.328 134.714 304.248 132.632 301.682 132.632H257.09ZM264.057 151.344C264.057 147.429 267.229 144.255 271.141 144.255H288.328C292.24 144.255 295.411 147.429 295.411 151.344V168.545C295.411 172.461 292.24 175.635 288.328 175.635H271.141C267.229 175.635 264.057 172.461 264.057 168.545V151.344ZM271.141 149.833C270.307 149.833 269.631 150.51 269.631 151.344V168.545C269.631 169.38 270.307 170.056 271.141 170.056H288.328C289.162 170.056 289.837 169.38 289.837 168.545V151.344C289.837 150.51 289.162 149.833 288.328 149.833H271.141Z" fill="#FEFEFE"/>
<path fill-rule="evenodd" clip-rule="evenodd" d="M290.534 119.615C292.074 119.615 293.321 120.864 293.321 122.405V129.843C293.321 131.384 292.074 132.632 290.534 132.632C288.995 132.632 287.747 131.384 287.747 129.843V122.405C287.747 120.864 288.995 119.615 290.534 119.615Z" fill="#FEFEFE"/>
<path fill-rule="evenodd" clip-rule="evenodd" d="M290.534 186.56C292.074 186.56 293.321 187.809 293.321 189.35V196.788C293.321 198.328 292.074 199.577 290.534 199.577C288.995 199.577 287.747 198.328 287.747 196.788V189.35C287.747 187.809 288.995 186.56 290.534 186.56Z" fill="#FEFEFE"/>
<path fill-rule="evenodd" clip-rule="evenodd" d="M239.439 170.754C239.439 169.213 240.686 167.964 242.226 167.964H249.658C251.197 167.964 252.445 169.213 252.445 170.754C252.445 172.294 251.197 173.543 249.658 173.543H242.226C240.686 173.543 239.439 172.294 239.439 170.754Z" fill="#FEFEFE"/>
<path fill-rule="evenodd" clip-rule="evenodd" d="M239.439 148.439C239.439 146.898 240.686 145.649 242.226 145.649H249.658C251.197 145.649 252.445 146.898 252.445 148.439C252.445 149.979 251.197 151.228 249.658 151.228H242.226C240.686 151.228 239.439 149.979 239.439 148.439Z" fill="#FEFEFE"/>
<path fill-rule="evenodd" clip-rule="evenodd" d="M306.328 170.754C306.328 169.213 307.576 167.964 309.115 167.964H316.546C318.085 167.964 319.333 169.213 319.333 170.754C319.333 172.294 318.085 173.543 316.546 173.543H309.115C307.576 173.543 306.328 172.294 306.328 170.754Z" fill="#FEFEFE"/>
<path fill-rule="evenodd" clip-rule="evenodd" d="M306.328 148.439C306.328 146.898 307.576 145.649 309.115 145.649H316.546C318.085 145.649 319.333 146.898 319.333 148.439C319.333 149.979 318.085 151.228 316.546 151.228H309.115C307.576 151.228 306.328 149.979 306.328 148.439Z" fill="#FEFEFE"/>
<path fill-rule="evenodd" clip-rule="evenodd" d="M268.238 119.615C269.777 119.615 271.025 120.864 271.025 122.405V129.843C271.025 131.384 269.777 132.632 268.238 132.632C266.699 132.632 265.451 131.384 265.451 129.843V122.405C265.451 120.864 266.699 119.615 268.238 119.615Z" fill="#FEFEFE"/>
<path fill-rule="evenodd" clip-rule="evenodd" d="M268.238 186.56C269.777 186.56 271.025 187.809 271.025 189.35V196.788C271.025 198.328 269.777 199.577 268.238 199.577C266.699 199.577 265.451 198.328 265.451 196.788V189.35C265.451 187.809 266.699 186.56 268.238 186.56Z" fill="#FEFEFE"/>
</svg>
