<svg width="425" height="84" viewBox="0 0 425 84" fill="none" xmlns="http://www.w3.org/2000/svg">
<g clip-path="url(#clip0_3181_3678)">
<path d="M96.4386 74.3077V10.8781H133.572V22.2955H109.087V37.1561H133.12V48.3922H109.087V74.3077H96.4386ZM137.646 74.3077V27.1886H149.843V74.3077H137.646ZM136.381 16.0431C136.381 12.1467 139.543 8.88464 143.699 8.88464C147.946 8.88464 151.018 12.1467 151.018 16.0431C151.018 20.1207 147.946 23.2922 143.699 23.2922C139.543 23.2922 136.381 20.0301 136.381 16.0431ZM149.829 74.3077L167.447 50.7482L150.732 27.1886H165.279L174.856 42.1399L184.794 27.1886H199.069L182.355 50.9294L199.972 74.3077H185.155L174.946 59.2659L164.375 74.3077H149.829ZM199.987 74.3077V27.1886H211.822V36.1594C213.449 29.3633 218.237 25.6482 226.368 26.1012V37.6092H224.652C217.605 37.6092 212.184 42.3211 212.184 50.2045V74.3077H199.987Z" fill="#1F65FE"/>
<path fill-rule="evenodd" clip-rule="evenodd" d="M22.0899 11.843H66.6824C70.787 11.843 74.1147 15.1733 74.1147 19.2813V63.9112C74.1147 68.0192 70.787 71.3497 66.6824 71.3497H22.0899C17.9853 71.3497 14.6578 68.0192 14.6578 63.9112V19.2813C14.6578 15.1733 17.9853 11.843 22.0899 11.843ZM36.1412 29.0441H53.3278C55.7009 29.0441 57.6245 30.9694 57.6245 33.3444V50.5454C57.6245 52.9204 55.7009 54.8457 53.3278 54.8457H36.1412C33.7682 54.8457 31.8445 52.9204 31.8445 50.5454V33.3444C31.8445 30.9694 33.7682 29.0441 36.1412 29.0441Z" fill="#1F65FE"/>
<path fill-rule="evenodd" clip-rule="evenodd" d="M11.8707 19.2813C11.8707 13.6327 16.4459 9.05359 22.0898 9.05359H66.6823C72.3261 9.05359 76.9017 13.6327 76.9017 19.2813V63.9111C76.9017 69.5596 72.3261 74.139 66.6823 74.139H22.0898C16.4459 74.139 11.8707 69.5596 11.8707 63.9111V19.2813ZM22.0898 14.6323C19.5244 14.6323 17.4448 16.7137 17.4448 19.2813V63.9111C17.4448 66.4786 19.5244 68.5603 22.0898 68.5603H66.6823C69.2477 68.5603 71.3276 66.4786 71.3276 63.9111V19.2813C71.3276 16.7137 69.2477 14.6323 66.6823 14.6323H22.0898ZM29.0574 33.3443C29.0574 29.4288 32.2289 26.2547 36.1411 26.2547H53.3278C57.24 26.2547 60.4115 29.4288 60.4115 33.3443V50.5454C60.4115 54.4609 57.24 57.635 53.3278 57.635H36.1411C32.2289 57.635 29.0574 54.4609 29.0574 50.5454V33.3443ZM36.1411 31.8334C35.3074 31.8334 34.6314 32.5098 34.6314 33.3443V50.5454C34.6314 51.3799 35.3074 52.0563 36.1411 52.0563H53.3278C54.1616 52.0563 54.8374 51.3799 54.8374 50.5454V33.3443C54.8374 32.5098 54.1616 31.8334 53.3278 31.8334H36.1411Z" fill="#1F65FE"/>
<path fill-rule="evenodd" clip-rule="evenodd" d="M55.5342 1.61536C57.0735 1.61536 58.3213 2.8642 58.3213 4.40474V11.843C58.3213 13.3836 57.0735 14.6324 55.5342 14.6324C53.995 14.6324 52.7472 13.3836 52.7472 11.843V4.40474C52.7472 2.8642 53.995 1.61536 55.5342 1.61536Z" fill="#1F65FE"/>
<path fill-rule="evenodd" clip-rule="evenodd" d="M55.5342 68.5602C57.0735 68.5602 58.3213 69.8092 58.3213 71.3496V78.7874C58.3213 80.3279 57.0735 81.5768 55.5342 81.5768C53.995 81.5768 52.7472 80.3279 52.7472 78.7874V71.3496C52.7472 69.8092 53.995 68.5602 55.5342 68.5602Z" fill="#1F65FE"/>
<path fill-rule="evenodd" clip-rule="evenodd" d="M4.4386 52.7537C4.4386 51.2132 5.6864 49.9643 7.22564 49.9643H14.6578C16.197 49.9643 17.4448 51.2132 17.4448 52.7537C17.4448 54.2942 16.197 55.543 14.6578 55.543H7.22564C5.6864 55.543 4.4386 54.2942 4.4386 52.7537Z" fill="#1F65FE"/>
<path fill-rule="evenodd" clip-rule="evenodd" d="M4.4386 30.4388C4.4386 28.8983 5.6864 27.6494 7.22564 27.6494H14.6578C16.197 27.6494 17.4448 28.8983 17.4448 30.4388C17.4448 31.9793 16.197 33.2281 14.6578 33.2281H7.22564C5.6864 33.2281 4.4386 31.9793 4.4386 30.4388Z" fill="#1F65FE"/>
<path fill-rule="evenodd" clip-rule="evenodd" d="M71.3276 52.7537C71.3276 51.2132 72.5755 49.9643 74.1147 49.9643H81.5463C83.0854 49.9643 84.3333 51.2132 84.3333 52.7537C84.3333 54.2942 83.0854 55.543 81.5463 55.543H74.1147C72.5755 55.543 71.3276 54.2942 71.3276 52.7537Z" fill="#1F65FE"/>
<path fill-rule="evenodd" clip-rule="evenodd" d="M71.3276 30.4388C71.3276 28.8983 72.5755 27.6494 74.1147 27.6494H81.5463C83.0854 27.6494 84.3333 28.8983 84.3333 30.4388C84.3333 31.9793 83.0854 33.2281 81.5463 33.2281H74.1147C72.5755 33.2281 71.3276 31.9793 71.3276 30.4388Z" fill="#1F65FE"/>
<path fill-rule="evenodd" clip-rule="evenodd" d="M33.2378 1.61536C34.7771 1.61536 36.0249 2.8642 36.0249 4.40474V11.843C36.0249 13.3836 34.7771 14.6324 33.2378 14.6324C31.6986 14.6324 30.4508 13.3836 30.4508 11.843V4.40474C30.4508 2.8642 31.6986 1.61536 33.2378 1.61536Z" fill="#1F65FE"/>
<path fill-rule="evenodd" clip-rule="evenodd" d="M33.2378 68.5602C34.7771 68.5602 36.0249 69.8092 36.0249 71.3496V78.7874C36.0249 80.3279 34.7771 81.5768 33.2378 81.5768C31.6986 81.5768 30.4508 80.3279 30.4508 78.7874V71.3496C30.4508 69.8092 31.6986 68.5602 33.2378 68.5602Z" fill="#1F65FE"/>
<path d="M256.321 74H238.21V12.1818H257.408C263.304 12.1818 268.345 13.4093 272.53 15.8643C276.736 18.3194 279.956 21.8409 282.189 26.429C284.423 31.017 285.54 36.5207 285.54 42.94C285.54 49.4196 284.393 54.9837 282.099 59.6321C279.825 64.2604 276.504 67.8121 272.138 70.2873C267.791 72.7624 262.519 74 256.321 74ZM243.855 68.929H255.989C261.301 68.929 265.749 67.8826 269.331 65.7898C272.913 63.697 275.599 60.7087 277.39 56.8249C279.181 52.9412 280.076 48.3129 280.076 42.94C280.056 37.6074 279.171 33.0193 277.42 29.1758C275.69 25.3323 273.114 22.3842 269.693 20.3317C266.292 18.2791 262.086 17.2528 257.076 17.2528H243.855V68.929ZM313.574 74.9659C309.57 74.9659 306.028 73.9497 302.949 71.9173C299.891 69.8848 297.496 67.0777 295.765 63.4957C294.035 59.8937 293.17 55.7383 293.17 51.0295C293.17 46.2804 294.035 42.1049 295.765 38.5028C297.496 34.8807 299.891 32.0634 302.949 30.0511C306.028 28.0187 309.57 27.0025 313.574 27.0025C317.579 27.0025 321.11 28.0187 324.169 30.0511C327.228 32.0836 329.623 34.9008 331.353 38.5028C333.104 42.1049 333.979 46.2804 333.979 51.0295C333.979 55.7383 333.114 59.8937 331.383 63.4957C329.653 67.0777 327.248 69.8848 324.169 71.9173C321.11 73.9497 317.579 74.9659 313.574 74.9659ZM313.574 70.0458C316.794 70.0458 319.521 69.1805 321.754 67.4499C323.988 65.7193 325.678 63.4152 326.825 60.5376C327.993 57.66 328.576 54.4906 328.576 51.0295C328.576 47.5683 327.993 44.3888 326.825 41.4911C325.678 38.5934 323.988 36.2692 321.754 34.5185C319.521 32.7678 316.794 31.8924 313.574 31.8924C310.375 31.8924 307.648 32.7678 305.394 34.5185C303.161 36.2692 301.46 38.5934 300.293 41.4911C299.146 44.3888 298.573 47.5683 298.573 51.0295C298.573 54.4906 299.146 57.66 300.293 60.5376C301.46 63.4152 303.161 65.7193 305.394 67.4499C307.628 69.1805 310.355 70.0458 313.574 70.0458ZM361.335 74.9659C357.189 74.9659 353.577 73.9296 350.498 71.8569C347.44 69.7842 345.065 66.9469 343.375 63.3448C341.684 59.7428 340.839 55.6377 340.839 51.0295C340.839 46.381 341.695 42.2457 343.405 38.6236C345.136 35.0014 347.53 32.1641 350.589 30.1115C353.648 28.0388 357.199 27.0025 361.244 27.0025C364.343 27.0025 367.15 27.6062 369.666 28.8136C372.181 30.0008 374.254 31.6811 375.884 33.8544C377.534 36.0076 378.57 38.523 378.993 41.4006H373.559C372.996 38.7846 371.638 36.5509 369.485 34.6996C367.351 32.8281 364.635 31.8924 361.335 31.8924C358.377 31.8924 355.761 32.6973 353.487 34.3072C351.213 35.8969 349.432 38.1205 348.144 40.978C346.876 43.8153 346.242 47.1055 346.242 50.8484C346.242 54.6114 346.866 57.9418 348.114 60.8395C349.361 63.7171 351.112 65.9709 353.366 67.6009C355.64 69.2308 358.296 70.0458 361.335 70.0458C363.387 70.0458 365.259 69.6635 366.949 68.8988C368.659 68.114 370.088 67.0072 371.235 65.5785C372.402 64.1497 373.187 62.4493 373.59 60.4773H379.023C378.62 63.2744 377.624 65.7696 376.035 67.9631C374.465 70.1364 372.422 71.8468 369.907 73.0945C367.412 74.3421 364.554 74.9659 361.335 74.9659ZM419.139 37.8086L414.219 39.1971C413.736 37.8086 413.052 36.5509 412.166 35.424C411.281 34.2971 410.124 33.4016 408.695 32.7376C407.286 32.0735 405.536 31.7415 403.443 31.7415C400.304 31.7415 397.728 32.486 395.716 33.9751C393.703 35.4643 392.697 37.386 392.697 39.7404C392.697 41.7326 393.381 43.3525 394.75 44.6001C396.138 45.8277 398.271 46.8036 401.149 47.5281L408.152 49.2486C412.035 50.1944 414.943 51.6935 416.875 53.7461C418.827 55.7986 419.803 58.3744 419.803 61.4734C419.803 64.0894 419.079 66.4136 417.63 68.446C416.181 70.4785 414.158 72.0782 411.563 73.2454C408.987 74.3924 405.999 74.9659 402.598 74.9659C398.07 74.9659 394.337 73.9497 391.399 71.9173C388.461 69.8647 386.58 66.9066 385.755 63.043L390.916 61.7752C391.58 64.5321 392.878 66.6148 394.81 68.0234C396.762 69.4321 399.328 70.1364 402.507 70.1364C406.069 70.1364 408.916 69.3415 411.049 67.7518C413.182 66.1419 414.249 64.1296 414.249 61.7148C414.249 59.8434 413.625 58.2738 412.378 57.006C411.13 55.7182 409.238 54.7724 406.703 54.1687L399.126 52.3576C395.102 51.3917 392.124 49.8623 390.192 47.7695C388.26 45.6767 387.294 43.0808 387.294 39.9819C387.294 37.4263 387.988 35.1825 389.377 33.2507C390.765 31.2988 392.677 29.7694 395.112 28.6626C397.547 27.5559 400.324 27.0025 403.443 27.0025C407.689 27.0025 411.08 27.9684 413.615 29.9002C416.171 31.8119 418.012 34.448 419.139 37.8086Z" fill="#FEFEFE"/>
</g>
<defs>
<clipPath id="clip0_3181_3678">
<rect width="425" height="84" fill="white"/>
</clipPath>
</defs>
</svg>
